<?xml version="1.0" encoding="UTF-8"?>
<svg xmlns="http://www.w3.org/2000/svg" viewBox="0 0 940 600" width="940" height="600"
     role="img" aria-label="Blackwall-V retro terminal (dark)">
  <defs>
    <linearGradient id="bg" x1="0" y1="0" x2="0" y2="1">
      <stop offset="0" stop-color="#0d160c"/>
      <stop offset="0.5" stop-color="#0a0f08"/>
      <stop offset="1" stop-color="#0d160c"/>
    </linearGradient>
    <radialGradient id="vignette" cx="0.5" cy="0.5" r="0.75">
      <stop offset="0.55" stop-color="#000000" stop-opacity="0"/>
      <stop offset="1" stop-color="#000000" stop-opacity="0.55"/>
    </radialGradient>
    <filter id="bloom" x="-20%" y="-20%" width="140%" height="140%">
      <feGaussianBlur stdDeviation="4" result="b"/>
      <feMerge><feMergeNode in="b"/><feMergeNode in="SourceGraphic"/></feMerge>
    </filter>
    <filter id="soft" x="-20%" y="-20%" width="140%" height="140%">
      <feGaussianBlur stdDeviation="36"/>
    </filter>
  </defs>

  <rect width="940" height="600" fill="url(#bg)"/>

  <g filter="url(#soft)" opacity="0.40">
    <circle cx="160" cy="300" r="120" fill="#39ff14">
      <animate attributeName="cx" values="160;240;160" dur="18s" repeatCount="indefinite"/>
    </circle>
    <circle cx="780" cy="220" r="100" fill="#ffb454" opacity="0.7">
      <animate attributeName="cx" values="780;700;780" dur="22s" repeatCount="indefinite"/>
    </circle>
    <circle cx="600" cy="480" r="90" fill="#5fd0ff" opacity="0.5">
      <animate attributeName="cy" values="480;450;480" dur="12s" repeatCount="indefinite"/>
    </circle>
  </g>

  <rect x="22" y="50" width="890" height="532" rx="12"
        fill="#08120a" stroke="rgba(60,200,90,0.30)" stroke-width="1.5"/>
  <rect x="22" y="50" width="890" height="28" rx="12" fill="#000000" opacity="0.55"/>
  <rect x="22" y="72" width="890" height="6" fill="#000000" opacity="0.55"/>
  <circle cx="40" cy="65" r="5" fill="#ff5f57"/>
  <circle cx="58" cy="65" r="5" fill="#febc2e"/>
  <circle cx="76" cy="65" r="5" fill="#28c840"/>
  <text x="100" y="70" font-family="ui-monospace,SFMono-Regular,Menlo,Consolas,monospace"
        font-size="11" fill="#5a8f72">blackwall@localhost: ~</text>
  <circle cx="890" cy="65" r="4" fill="#ff3b30">
    <animate attributeName="opacity" values="1;0.2;1" dur="1.2s" repeatCount="indefinite"/>
  </circle>

  <!-- prompt above ASCII -->
  <text x="60" y="94" font-family="ui-monospace,SFMono-Regular,Menlo,Consolas,monospace"
        font-size="13" font-weight="700" fill="#ffb454">$ figlet Blackwall-V</text>
  <rect x="230" y="82" width="9" height="14" fill="#ffb454">
    <animate attributeName="opacity" values="1;1;0;0" keyTimes="0;0.49;0.5;1" dur="1s" repeatCount="indefinite"/>
  </rect>

  <!-- ASCII art with bloom -->
  <g filter="url(#bloom)">
      <text x="60" y="121.9" font-family="ui-monospace,SFMono-Regular,Menlo,Consolas,monospace" font-size="12" font-weight="700" letter-spacing="0.5" fill="#7dffb0" opacity="0">*@@@***@@m *@@@                   *@@@                                   *@@@   *@@@          *@@@@*   *@@@*  *@<animate attributeName="opacity" from="0" to="1" begin="0.20s" dur="0.45s" fill="freeze"/><animate attributeName="opacity" values="1;0.55;1" begin="3s" dur="3.6s" repeatCount="indefinite"/></text>
      <text x="60" y="138.9" font-family="ui-monospace,SFMono-Regular,Menlo,Consolas,monospace" font-size="12" font-weight="700" letter-spacing="0.5" fill="#7dffb0" opacity="0">  @@    @@   @@                     @@                                     @@     @@            *@@     m@    m@<animate attributeName="opacity" from="0" to="1" begin="0.32s" dur="0.45s" fill="freeze"/><animate attributeName="opacity" values="1;0.55;1" begin="3s" dur="4.0s" repeatCount="indefinite"/></text>
      <text x="60" y="155.9" font-family="ui-monospace,SFMono-Regular,Menlo,Consolas,monospace" font-size="12" font-weight="700" letter-spacing="0.5" fill="#7dffb0" opacity="0">  @@    @@   @@   m@*@@m   m@@*@@   @@  m@@* *@@*    m@    *@@* m@*@@m     @@     @@             @@m   m@     *@<animate attributeName="opacity" from="0" to="1" begin="0.44s" dur="0.45s" fill="freeze"/><animate attributeName="opacity" values="1;0.55;1" begin="3s" dur="4.4s" repeatCount="indefinite"/></text>
      <text x="60" y="172.9" font-family="ui-monospace,SFMono-Regular,Menlo,Consolas,monospace" font-size="12" font-weight="700" letter-spacing="0.5" fill="#7dffb0" opacity="0">  @@***@mm   !@  @@   @@  @@*  @@   @@ m@      @@   m@@@   m@  @@   @@     !@     !@              @@m  @*     m@<animate attributeName="opacity" from="0" to="1" begin="0.56s" dur="0.45s" fill="freeze"/><animate attributeName="opacity" values="1;0.55;1" begin="3s" dur="4.8s" repeatCount="indefinite"/></text>
      <text x="60" y="189.9" font-family="ui-monospace,SFMono-Regular,Menlo,Consolas,monospace" font-size="12" font-weight="700" letter-spacing="0.5" fill="#7dffb0" opacity="0">  @!    *@   !@   m@@@!@  @!        !@m@@       @@ m@  @@ m@    m@@@!@     !@     !@    @@@@@     *!@ !*      *@<animate attributeName="opacity" from="0" to="1" begin="0.68s" dur="0.45s" fill="freeze"/><animate attributeName="opacity" values="1;0.55;1" begin="3s" dur="5.2s" repeatCount="indefinite"/></text>
      <text x="60" y="206.9" font-family="ui-monospace,SFMono-Regular,Menlo,Consolas,monospace" font-size="12" font-weight="700" letter-spacing="0.5" fill="#7dffb0" opacity="0">  !!    m@   !@  @!   !@  @!m    m  !@ *@@m      @@@    @!!    @!   !@     !@     !@               !@@m      m@<animate attributeName="opacity" from="0" to="1" begin="0.80s" dur="0.45s" fill="freeze"/><animate attributeName="opacity" values="1;0.55;1" begin="3s" dur="5.6s" repeatCount="indefinite"/></text>
      <text x="60" y="223.9" font-family="ui-monospace,SFMono-Regular,Menlo,Consolas,monospace" font-size="12" font-weight="700" letter-spacing="0.5" fill="#7dffb0" opacity="0">  !:    *!   !!   !!!!:!  !!        !!!!!        !@!!   !:!     !!!!:!     !!     !!               !! !*      *@<animate attributeName="opacity" from="0" to="1" begin="0.92s" dur="0.45s" fill="freeze"/><animate attributeName="opacity" values="1;0.55;1" begin="3s" dur="6.0s" repeatCount="indefinite"/></text>
      <text x="60" y="240.9" font-family="ui-monospace,SFMono-Regular,Menlo,Consolas,monospace" font-size="12" font-weight="700" letter-spacing="0.5" fill="#7dffb0" opacity="0">  !:    !!   :!  !!   :!  !:!    !  :! *!!!      !!!    !:!    !!   :!     :!     :!               !!::     :@<animate attributeName="opacity" from="0" to="1" begin="1.04s" dur="0.45s" fill="freeze"/><animate attributeName="opacity" values="1;0.55;1" begin="3s" dur="6.4s" repeatCount="indefinite"/></text>
      <text x="60" y="257.9" font-family="ui-monospace,SFMono-Regular,Menlo,Consolas,monospace" font-size="12" font-weight="700" letter-spacing="0.5" fill="#7dffb0" opacity="0">: !: : : : : : :!: : !:  : : :  : : :  : :      :      :     :!: : !:  : : :  : : :               :       ::<animate attributeName="opacity" from="0" to="1" begin="1.16s" dur="0.45s" fill="freeze"/><animate attributeName="opacity" values="1;0.55;1" begin="3s" dur="6.8s" repeatCount="indefinite"/></text>
  </g>

  <!-- divider under ASCII -->
  <line x1="60" y1="275" x2="892" y2="275"
        stroke="#39ff14" stroke-width="1" opacity="0.5">
    <animate attributeName="opacity" values="0.2;0.7;0.2" dur="4s" repeatCount="indefinite"/>
  </line>

  <!-- typed script -->
  <g opacity="0"><text x="60" y="311" font-family="ui-monospace,SFMono-Regular,Menlo,Consolas,monospace" font-size="14" font-weight="700" fill="#ffb454">$</text><text x="78" y="311" font-family="ui-monospace,SFMono-Regular,Menlo,Consolas,monospace" font-size="14" font-weight="700" fill="#39ff14">whoami</text><animate attributeName="opacity" from="0" to="1" begin="0.40s" dur="0.35s" fill="freeze"/></g>
  <g opacity="0"><text x="78" y="333" font-family="ui-monospace,SFMono-Regular,Menlo,Consolas,monospace" font-size="14" font-weight="500" fill="#7dffb0">blackwall-v — data/ML engineer</text><animate attributeName="opacity" from="0" to="1" begin="1.40s" dur="0.35s" fill="freeze"/></g>
  <g opacity="0"><text x="60" y="355" font-family="ui-monospace,SFMono-Regular,Menlo,Consolas,monospace" font-size="14" font-weight="700" fill="#ffb454">$</text><text x="78" y="355" font-family="ui-monospace,SFMono-Regular,Menlo,Consolas,monospace" font-size="14" font-weight="700" fill="#39ff14">cat stack.txt</text><animate attributeName="opacity" from="0" to="1" begin="2.40s" dur="0.35s" fill="freeze"/></g>
  <g opacity="0"><text x="78" y="377" font-family="ui-monospace,SFMono-Regular,Menlo,Consolas,monospace" font-size="14" font-weight="500" fill="#7dffb0">python · pandas · sklearn · pycaret</text><animate attributeName="opacity" from="0" to="1" begin="3.40s" dur="0.35s" fill="freeze"/></g>
  <g opacity="0"><text x="78" y="399" font-family="ui-monospace,SFMono-Regular,Menlo,Consolas,monospace" font-size="14" font-weight="500" fill="#7dffb0">rust · lua · linux</text><animate attributeName="opacity" from="0" to="1" begin="4.40s" dur="0.35s" fill="freeze"/></g>
  <g opacity="0"><text x="60" y="421" font-family="ui-monospace,SFMono-Regular,Menlo,Consolas,monospace" font-size="14" font-weight="700" fill="#ffb454">$</text><text x="78" y="421" font-family="ui-monospace,SFMono-Regular,Menlo,Consolas,monospace" font-size="14" font-weight="700" fill="#39ff14">echo $STATUS</text><animate attributeName="opacity" from="0" to="1" begin="5.40s" dur="0.35s" fill="freeze"/></g>
  <g opacity="0"><text x="78" y="443" font-family="ui-monospace,SFMono-Regular,Menlo,Consolas,monospace" font-size="14" font-weight="500" fill="#5fd0ff">open to collaboration</text><animate attributeName="opacity" from="0" to="1" begin="6.40s" dur="0.35s" fill="freeze"/></g>

  <!-- $ ls ./stack label -->
  <text x="60" y="493" font-family="ui-monospace,SFMono-Regular,Menlo,Consolas,monospace"
        font-size="13" font-weight="700" fill="#5a8f72">$ ls ./stack</text>
      <g opacity="0"><text x="60" y="513" font-family="ui-monospace,SFMono-Regular,Menlo,Consolas,monospace" font-size="13" font-weight="700" fill="#ffb454">[python]</text><animate attributeName="opacity" from="0" to="1" begin="2.40s" dur="0.4s" fill="freeze"/></g>
      <g opacity="0"><text x="143.2" y="513" font-family="ui-monospace,SFMono-Regular,Menlo,Consolas,monospace" font-size="13" font-weight="700" fill="#ffb454">[pandas]</text><animate attributeName="opacity" from="0" to="1" begin="2.52s" dur="0.4s" fill="freeze"/></g>
      <g opacity="0"><text x="226.39999999999998" y="513" font-family="ui-monospace,SFMono-Regular,Menlo,Consolas,monospace" font-size="13" font-weight="700" fill="#ffb454">[sklearn]</text><animate attributeName="opacity" from="0" to="1" begin="2.64s" dur="0.4s" fill="freeze"/></g>
      <g opacity="0"><text x="318.0" y="513" font-family="ui-monospace,SFMono-Regular,Menlo,Consolas,monospace" font-size="13" font-weight="700" fill="#ffb454">[pycaret]</text><animate attributeName="opacity" from="0" to="1" begin="2.76s" dur="0.4s" fill="freeze"/></g>
      <g opacity="0"><text x="409.6" y="513" font-family="ui-monospace,SFMono-Regular,Menlo,Consolas,monospace" font-size="13" font-weight="700" fill="#ffb454">[rust]</text><animate attributeName="opacity" from="0" to="1" begin="2.88s" dur="0.4s" fill="freeze"/></g>
      <g opacity="0"><text x="476.0" y="513" font-family="ui-monospace,SFMono-Regular,Menlo,Consolas,monospace" font-size="13" font-weight="700" fill="#ffb454">[lua]</text><animate attributeName="opacity" from="0" to="1" begin="3.00s" dur="0.4s" fill="freeze"/></g>
      <g opacity="0"><text x="534.0" y="513" font-family="ui-monospace,SFMono-Regular,Menlo,Consolas,monospace" font-size="13" font-weight="700" fill="#ffb454">[linux]</text><animate attributeName="opacity" from="0" to="1" begin="3.12s" dur="0.4s" fill="freeze"/></g>

  <!-- status bar -->
  <rect x="22" y="560" width="890" height="26" fill="#000000" opacity="0.5"/>
  <rect x="22" y="560" width="890" height="26" fill="none" stroke="rgba(60,200,90,0.30)" stroke-width="1"/>
  <circle cx="40" cy="573" r="4" fill="#28c840">
    <animate attributeName="opacity" values="1;0.3;1" dur="1.6s" repeatCount="indefinite"/>
  </circle>
  <text x="54" y="577" font-family="ui-monospace,SFMono-Regular,Menlo,Consolas,monospace"
        font-size="11" fill="#39ff14">online</text>
  <text x="112" y="577" font-family="ui-monospace,SFMono-Regular,Menlo,Consolas,monospace"
        font-size="11" fill="#5a8f72">| branch: main | utf-8 | RETRO-OS v1.0</text>
  <text x="894" y="577" text-anchor="end"
        font-family="ui-monospace,SFMono-Regular,Menlo,Consolas,monospace"
        font-size="11" fill="#ffb454">github.com/Blackwall-V</text>

  <!-- scanlines overlay -->
  <g opacity="0.9">
<rect x="0" y="0" width="940" height="1" fill="rgba(80,255,120,0.05)"/>
<rect x="0" y="3" width="940" height="1" fill="rgba(80,255,120,0.05)"/>
<rect x="0" y="6" width="940" height="1" fill="rgba(80,255,120,0.05)"/>
<rect x="0" y="9" width="940" height="1" fill="rgba(80,255,120,0.05)"/>
<rect x="0" y="12" width="940" height="1" fill="rgba(80,255,120,0.05)"/>
<rect x="0" y="15" width="940" height="1" fill="rgba(80,255,120,0.05)"/>
<rect x="0" y="18" width="940" height="1" fill="rgba(80,255,120,0.05)"/>
<rect x="0" y="21" width="940" height="1" fill="rgba(80,255,120,0.05)"/>
<rect x="0" y="24" width="940" height="1" fill="rgba(80,255,120,0.05)"/>
<rect x="0" y="27" width="940" height="1" fill="rgba(80,255,120,0.05)"/>
<rect x="0" y="30" width="940" height="1" fill="rgba(80,255,120,0.05)"/>
<rect x="0" y="33" width="940" height="1" fill="rgba(80,255,120,0.05)"/>
<rect x="0" y="36" width="940" height="1" fill="rgba(80,255,120,0.05)"/>
<rect x="0" y="39" width="940" height="1" fill="rgba(80,255,120,0.05)"/>
<rect x="0" y="42" width="940" height="1" fill="rgba(80,255,120,0.05)"/>
<rect x="0" y="45" width="940" height="1" fill="rgba(80,255,120,0.05)"/>
<rect x="0" y="48" width="940" height="1" fill="rgba(80,255,120,0.05)"/>
<rect x="0" y="51" width="940" height="1" fill="rgba(80,255,120,0.05)"/>
<rect x="0" y="54" width="940" height="1" fill="rgba(80,255,120,0.05)"/>
<rect x="0" y="57" width="940" height="1" fill="rgba(80,255,120,0.05)"/>
<rect x="0" y="60" width="940" height="1" fill="rgba(80,255,120,0.05)"/>
<rect x="0" y="63" width="940" height="1" fill="rgba(80,255,120,0.05)"/>
<rect x="0" y="66" width="940" height="1" fill="rgba(80,255,120,0.05)"/>
<rect x="0" y="69" width="940" height="1" fill="rgba(80,255,120,0.05)"/>
<rect x="0" y="72" width="940" height="1" fill="rgba(80,255,120,0.05)"/>
<rect x="0" y="75" width="940" height="1" fill="rgba(80,255,120,0.05)"/>
<rect x="0" y="78" width="940" height="1" fill="rgba(80,255,120,0.05)"/>
<rect x="0" y="81" width="940" height="1" fill="rgba(80,255,120,0.05)"/>
<rect x="0" y="84" width="940" height="1" fill="rgba(80,255,120,0.05)"/>
<rect x="0" y="87" width="940" height="1" fill="rgba(80,255,120,0.05)"/>
<rect x="0" y="90" width="940" height="1" fill="rgba(80,255,120,0.05)"/>
<rect x="0" y="93" width="940" height="1" fill="rgba(80,255,120,0.05)"/>
<rect x="0" y="96" width="940" height="1" fill="rgba(80,255,120,0.05)"/>
<rect x="0" y="99" width="940" height="1" fill="rgba(80,255,120,0.05)"/>
<rect x="0" y="102" width="940" height="1" fill="rgba(80,255,120,0.05)"/>
<rect x="0" y="105" width="940" height="1" fill="rgba(80,255,120,0.05)"/>
<rect x="0" y="108" width="940" height="1" fill="rgba(80,255,120,0.05)"/>
<rect x="0" y="111" width="940" height="1" fill="rgba(80,255,120,0.05)"/>
<rect x="0" y="114" width="940" height="1" fill="rgba(80,255,120,0.05)"/>
<rect x="0" y="117" width="940" height="1" fill="rgba(80,255,120,0.05)"/>
<rect x="0" y="120" width="940" height="1" fill="rgba(80,255,120,0.05)"/>
<rect x="0" y="123" width="940" height="1" fill="rgba(80,255,120,0.05)"/>
<rect x="0" y="126" width="940" height="1" fill="rgba(80,255,120,0.05)"/>
<rect x="0" y="129" width="940" height="1" fill="rgba(80,255,120,0.05)"/>
<rect x="0" y="132" width="940" height="1" fill="rgba(80,255,120,0.05)"/>
<rect x="0" y="135" width="940" height="1" fill="rgba(80,255,120,0.05)"/>
<rect x="0" y="138" width="940" height="1" fill="rgba(80,255,120,0.05)"/>
<rect x="0" y="141" width="940" height="1" fill="rgba(80,255,120,0.05)"/>
<rect x="0" y="144" width="940" height="1" fill="rgba(80,255,120,0.05)"/>
<rect x="0" y="147" width="940" height="1" fill="rgba(80,255,120,0.05)"/>
<rect x="0" y="150" width="940" height="1" fill="rgba(80,255,120,0.05)"/>
<rect x="0" y="153" width="940" height="1" fill="rgba(80,255,120,0.05)"/>
<rect x="0" y="156" width="940" height="1" fill="rgba(80,255,120,0.05)"/>
<rect x="0" y="159" width="940" height="1" fill="rgba(80,255,120,0.05)"/>
<rect x="0" y="162" width="940" height="1" fill="rgba(80,255,120,0.05)"/>
<rect x="0" y="165" width="940" height="1" fill="rgba(80,255,120,0.05)"/>
<rect x="0" y="168" width="940" height="1" fill="rgba(80,255,120,0.05)"/>
<rect x="0" y="171" width="940" height="1" fill="rgba(80,255,120,0.05)"/>
<rect x="0" y="174" width="940" height="1" fill="rgba(80,255,120,0.05)"/>
<rect x="0" y="177" width="940" height="1" fill="rgba(80,255,120,0.05)"/>
<rect x="0" y="180" width="940" height="1" fill="rgba(80,255,120,0.05)"/>
<rect x="0" y="183" width="940" height="1" fill="rgba(80,255,120,0.05)"/>
<rect x="0" y="186" width="940" height="1" fill="rgba(80,255,120,0.05)"/>
<rect x="0" y="189" width="940" height="1" fill="rgba(80,255,120,0.05)"/>
<rect x="0" y="192" width="940" height="1" fill="rgba(80,255,120,0.05)"/>
<rect x="0" y="195" width="940" height="1" fill="rgba(80,255,120,0.05)"/>
<rect x="0" y="198" width="940" height="1" fill="rgba(80,255,120,0.05)"/>
<rect x="0" y="201" width="940" height="1" fill="rgba(80,255,120,0.05)"/>
<rect x="0" y="204" width="940" height="1" fill="rgba(80,255,120,0.05)"/>
<rect x="0" y="207" width="940" height="1" fill="rgba(80,255,120,0.05)"/>
<rect x="0" y="210" width="940" height="1" fill="rgba(80,255,120,0.05)"/>
<rect x="0" y="213" width="940" height="1" fill="rgba(80,255,120,0.05)"/>
<rect x="0" y="216" width="940" height="1" fill="rgba(80,255,120,0.05)"/>
<rect x="0" y="219" width="940" height="1" fill="rgba(80,255,120,0.05)"/>
<rect x="0" y="222" width="940" height="1" fill="rgba(80,255,120,0.05)"/>
<rect x="0" y="225" width="940" height="1" fill="rgba(80,255,120,0.05)"/>
<rect x="0" y="228" width="940" height="1" fill="rgba(80,255,120,0.05)"/>
<rect x="0" y="231" width="940" height="1" fill="rgba(80,255,120,0.05)"/>
<rect x="0" y="234" width="940" height="1" fill="rgba(80,255,120,0.05)"/>
<rect x="0" y="237" width="940" height="1" fill="rgba(80,255,120,0.05)"/>
<rect x="0" y="240" width="940" height="1" fill="rgba(80,255,120,0.05)"/>
<rect x="0" y="243" width="940" height="1" fill="rgba(80,255,120,0.05)"/>
<rect x="0" y="246" width="940" height="1" fill="rgba(80,255,120,0.05)"/>
<rect x="0" y="249" width="940" height="1" fill="rgba(80,255,120,0.05)"/>
<rect x="0" y="252" width="940" height="1" fill="rgba(80,255,120,0.05)"/>
<rect x="0" y="255" width="940" height="1" fill="rgba(80,255,120,0.05)"/>
<rect x="0" y="258" width="940" height="1" fill="rgba(80,255,120,0.05)"/>
<rect x="0" y="261" width="940" height="1" fill="rgba(80,255,120,0.05)"/>
<rect x="0" y="264" width="940" height="1" fill="rgba(80,255,120,0.05)"/>
<rect x="0" y="267" width="940" height="1" fill="rgba(80,255,120,0.05)"/>
<rect x="0" y="270" width="940" height="1" fill="rgba(80,255,120,0.05)"/>
<rect x="0" y="273" width="940" height="1" fill="rgba(80,255,120,0.05)"/>
<rect x="0" y="276" width="940" height="1" fill="rgba(80,255,120,0.05)"/>
<rect x="0" y="279" width="940" height="1" fill="rgba(80,255,120,0.05)"/>
<rect x="0" y="282" width="940" height="1" fill="rgba(80,255,120,0.05)"/>
<rect x="0" y="285" width="940" height="1" fill="rgba(80,255,120,0.05)"/>
<rect x="0" y="288" width="940" height="1" fill="rgba(80,255,120,0.05)"/>
<rect x="0" y="291" width="940" height="1" fill="rgba(80,255,120,0.05)"/>
<rect x="0" y="294" width="940" height="1" fill="rgba(80,255,120,0.05)"/>
<rect x="0" y="297" width="940" height="1" fill="rgba(80,255,120,0.05)"/>
<rect x="0" y="300" width="940" height="1" fill="rgba(80,255,120,0.05)"/>
<rect x="0" y="303" width="940" height="1" fill="rgba(80,255,120,0.05)"/>
<rect x="0" y="306" width="940" height="1" fill="rgba(80,255,120,0.05)"/>
<rect x="0" y="309" width="940" height="1" fill="rgba(80,255,120,0.05)"/>
<rect x="0" y="312" width="940" height="1" fill="rgba(80,255,120,0.05)"/>
<rect x="0" y="315" width="940" height="1" fill="rgba(80,255,120,0.05)"/>
<rect x="0" y="318" width="940" height="1" fill="rgba(80,255,120,0.05)"/>
<rect x="0" y="321" width="940" height="1" fill="rgba(80,255,120,0.05)"/>
<rect x="0" y="324" width="940" height="1" fill="rgba(80,255,120,0.05)"/>
<rect x="0" y="327" width="940" height="1" fill="rgba(80,255,120,0.05)"/>
<rect x="0" y="330" width="940" height="1" fill="rgba(80,255,120,0.05)"/>
<rect x="0" y="333" width="940" height="1" fill="rgba(80,255,120,0.05)"/>
<rect x="0" y="336" width="940" height="1" fill="rgba(80,255,120,0.05)"/>
<rect x="0" y="339" width="940" height="1" fill="rgba(80,255,120,0.05)"/>
<rect x="0" y="342" width="940" height="1" fill="rgba(80,255,120,0.05)"/>
<rect x="0" y="345" width="940" height="1" fill="rgba(80,255,120,0.05)"/>
<rect x="0" y="348" width="940" height="1" fill="rgba(80,255,120,0.05)"/>
<rect x="0" y="351" width="940" height="1" fill="rgba(80,255,120,0.05)"/>
<rect x="0" y="354" width="940" height="1" fill="rgba(80,255,120,0.05)"/>
<rect x="0" y="357" width="940" height="1" fill="rgba(80,255,120,0.05)"/>
<rect x="0" y="360" width="940" height="1" fill="rgba(80,255,120,0.05)"/>
<rect x="0" y="363" width="940" height="1" fill="rgba(80,255,120,0.05)"/>
<rect x="0" y="366" width="940" height="1" fill="rgba(80,255,120,0.05)"/>
<rect x="0" y="369" width="940" height="1" fill="rgba(80,255,120,0.05)"/>
<rect x="0" y="372" width="940" height="1" fill="rgba(80,255,120,0.05)"/>
<rect x="0" y="375" width="940" height="1" fill="rgba(80,255,120,0.05)"/>
<rect x="0" y="378" width="940" height="1" fill="rgba(80,255,120,0.05)"/>
<rect x="0" y="381" width="940" height="1" fill="rgba(80,255,120,0.05)"/>
<rect x="0" y="384" width="940" height="1" fill="rgba(80,255,120,0.05)"/>
<rect x="0" y="387" width="940" height="1" fill="rgba(80,255,120,0.05)"/>
<rect x="0" y="390" width="940" height="1" fill="rgba(80,255,120,0.05)"/>
<rect x="0" y="393" width="940" height="1" fill="rgba(80,255,120,0.05)"/>
<rect x="0" y="396" width="940" height="1" fill="rgba(80,255,120,0.05)"/>
<rect x="0" y="399" width="940" height="1" fill="rgba(80,255,120,0.05)"/>
<rect x="0" y="402" width="940" height="1" fill="rgba(80,255,120,0.05)"/>
<rect x="0" y="405" width="940" height="1" fill="rgba(80,255,120,0.05)"/>
<rect x="0" y="408" width="940" height="1" fill="rgba(80,255,120,0.05)"/>
<rect x="0" y="411" width="940" height="1" fill="rgba(80,255,120,0.05)"/>
<rect x="0" y="414" width="940" height="1" fill="rgba(80,255,120,0.05)"/>
<rect x="0" y="417" width="940" height="1" fill="rgba(80,255,120,0.05)"/>
<rect x="0" y="420" width="940" height="1" fill="rgba(80,255,120,0.05)"/>
<rect x="0" y="423" width="940" height="1" fill="rgba(80,255,120,0.05)"/>
<rect x="0" y="426" width="940" height="1" fill="rgba(80,255,120,0.05)"/>
<rect x="0" y="429" width="940" height="1" fill="rgba(80,255,120,0.05)"/>
<rect x="0" y="432" width="940" height="1" fill="rgba(80,255,120,0.05)"/>
<rect x="0" y="435" width="940" height="1" fill="rgba(80,255,120,0.05)"/>
<rect x="0" y="438" width="940" height="1" fill="rgba(80,255,120,0.05)"/>
<rect x="0" y="441" width="940" height="1" fill="rgba(80,255,120,0.05)"/>
<rect x="0" y="444" width="940" height="1" fill="rgba(80,255,120,0.05)"/>
<rect x="0" y="447" width="940" height="1" fill="rgba(80,255,120,0.05)"/>
<rect x="0" y="450" width="940" height="1" fill="rgba(80,255,120,0.05)"/>
<rect x="0" y="453" width="940" height="1" fill="rgba(80,255,120,0.05)"/>
<rect x="0" y="456" width="940" height="1" fill="rgba(80,255,120,0.05)"/>
<rect x="0" y="459" width="940" height="1" fill="rgba(80,255,120,0.05)"/>
<rect x="0" y="462" width="940" height="1" fill="rgba(80,255,120,0.05)"/>
<rect x="0" y="465" width="940" height="1" fill="rgba(80,255,120,0.05)"/>
<rect x="0" y="468" width="940" height="1" fill="rgba(80,255,120,0.05)"/>
<rect x="0" y="471" width="940" height="1" fill="rgba(80,255,120,0.05)"/>
<rect x="0" y="474" width="940" height="1" fill="rgba(80,255,120,0.05)"/>
<rect x="0" y="477" width="940" height="1" fill="rgba(80,255,120,0.05)"/>
<rect x="0" y="480" width="940" height="1" fill="rgba(80,255,120,0.05)"/>
<rect x="0" y="483" width="940" height="1" fill="rgba(80,255,120,0.05)"/>
<rect x="0" y="486" width="940" height="1" fill="rgba(80,255,120,0.05)"/>
<rect x="0" y="489" width="940" height="1" fill="rgba(80,255,120,0.05)"/>
<rect x="0" y="492" width="940" height="1" fill="rgba(80,255,120,0.05)"/>
<rect x="0" y="495" width="940" height="1" fill="rgba(80,255,120,0.05)"/>
<rect x="0" y="498" width="940" height="1" fill="rgba(80,255,120,0.05)"/>
<rect x="0" y="501" width="940" height="1" fill="rgba(80,255,120,0.05)"/>
<rect x="0" y="504" width="940" height="1" fill="rgba(80,255,120,0.05)"/>
<rect x="0" y="507" width="940" height="1" fill="rgba(80,255,120,0.05)"/>
<rect x="0" y="510" width="940" height="1" fill="rgba(80,255,120,0.05)"/>
<rect x="0" y="513" width="940" height="1" fill="rgba(80,255,120,0.05)"/>
<rect x="0" y="516" width="940" height="1" fill="rgba(80,255,120,0.05)"/>
<rect x="0" y="519" width="940" height="1" fill="rgba(80,255,120,0.05)"/>
<rect x="0" y="522" width="940" height="1" fill="rgba(80,255,120,0.05)"/>
<rect x="0" y="525" width="940" height="1" fill="rgba(80,255,120,0.05)"/>
<rect x="0" y="528" width="940" height="1" fill="rgba(80,255,120,0.05)"/>
<rect x="0" y="531" width="940" height="1" fill="rgba(80,255,120,0.05)"/>
<rect x="0" y="534" width="940" height="1" fill="rgba(80,255,120,0.05)"/>
<rect x="0" y="537" width="940" height="1" fill="rgba(80,255,120,0.05)"/>
<rect x="0" y="540" width="940" height="1" fill="rgba(80,255,120,0.05)"/>
<rect x="0" y="543" width="940" height="1" fill="rgba(80,255,120,0.05)"/>
<rect x="0" y="546" width="940" height="1" fill="rgba(80,255,120,0.05)"/>
<rect x="0" y="549" width="940" height="1" fill="rgba(80,255,120,0.05)"/>
<rect x="0" y="552" width="940" height="1" fill="rgba(80,255,120,0.05)"/>
<rect x="0" y="555" width="940" height="1" fill="rgba(80,255,120,0.05)"/>
<rect x="0" y="558" width="940" height="1" fill="rgba(80,255,120,0.05)"/>
<rect x="0" y="561" width="940" height="1" fill="rgba(80,255,120,0.05)"/>
<rect x="0" y="564" width="940" height="1" fill="rgba(80,255,120,0.05)"/>
<rect x="0" y="567" width="940" height="1" fill="rgba(80,255,120,0.05)"/>
<rect x="0" y="570" width="940" height="1" fill="rgba(80,255,120,0.05)"/>
<rect x="0" y="573" width="940" height="1" fill="rgba(80,255,120,0.05)"/>
<rect x="0" y="576" width="940" height="1" fill="rgba(80,255,120,0.05)"/>
<rect x="0" y="579" width="940" height="1" fill="rgba(80,255,120,0.05)"/>
<rect x="0" y="582" width="940" height="1" fill="rgba(80,255,120,0.05)"/>
<rect x="0" y="585" width="940" height="1" fill="rgba(80,255,120,0.05)"/>
<rect x="0" y="588" width="940" height="1" fill="rgba(80,255,120,0.05)"/>
<rect x="0" y="591" width="940" height="1" fill="rgba(80,255,120,0.05)"/>
<rect x="0" y="594" width="940" height="1" fill="rgba(80,255,120,0.05)"/>
<rect x="0" y="597" width="940" height="1" fill="rgba(80,255,120,0.05)"/>
  </g>

  <!-- moving scan beam -->
  <rect x="0" y="0" width="940" height="3" fill="#39ff14" opacity="0.08">
    <animate attributeName="y" values="0;600;0" dur="9s" repeatCount="indefinite"/>
    <animate attributeName="opacity" values="0;0.18;0" dur="9s" repeatCount="indefinite"/>
  </rect>

  <!-- vignette -->
  <rect width="940" height="600" fill="url(#vignette)"/>
</svg>
